Sleepy Hollow 1999 BluRay 1080p DTS x264-LoNeWoLf

Encoded by Tequila-Bob a.k.a. bobnjeff a.k.a.LoNeWoLf

Source - NTSC BluRay Disc.

Movie has been tested and is DXVA Compliant




Sleepy Hollow (1999) 
  105 min  -  Fantasy | Mystery | Thriller   -  19 November 1999 (USA) 
  7.5/10 X  Users: 7.5/10 (111,606 votes) 940 reviews | Critics: 226 reviews Metascore: 65/100 (based on 35 reviews from Metacritic.com) 
  Ichabod Crane is sent to Sleepy Hollow to investigate the decapitations of 3 people with the culprit being the legendary apparition, the Headless Horseman. 
 
http://www.imdb.com/title/tt0162661/

Director: Tim Burton
Writers: Washington Irving (story), Kevin Yagher (screen story), and 2 more credits » 
Stars:Johnny Depp, Christina Ricci and Miranda Richardson

Genres:Fantasy , Mystery ,Thriller 

Rated R for graphic horror violence and gore, and for a scene of sexuality

Release Date:19 November 1999 (USA)



Cast
Cast overview, first billed only: 
  Johnny Depp  ...  Ichabod Crane  
  Christina Ricci  ...  Katrina Van Tassel  
  Miranda Richardson  ...  Lady Van Tassel / Crone  
  Michael Gambon  ...  Baltus Van Tassel  
  Casper Van Dien  ...  Brom Van Brunt  
  Jeffrey Jones  ...  Reverend Steenwyck  
  Richard Griffiths  ...  Magistrate Philipse  
  Ian McDiarmid  ...  Doctor Lancaster  
  Michael Gough  ...  Notary Hardenbrook  
  Christopher Walken  ...  Hessian Horseman  
  Marc Pickering  ...  Young Masbath  
  Lisa Marie  ...  Lady Crane 
  Steven Waddington  ...  Killian  
  Claire Skinner  ...  Beth Killian  
  Christopher Lee  ...  Burgomaster  


[img]http://torrent-stats.info/2f79/35d0e60d.png[/img]

See the full size 1920x1072 PNG files at the link below

 
http://s1015.photobucket.com/albums/af279/tequila-bob/Sleepy%20Hollow%201999/







Format : Matroska 
File size : 8.13 GiB 
Duration : 1h 45mn 
Overall bit rate : 11.0 Mbps 
Encoded date : UTC 2011-01-16 20:05:52 
Writing application : mkvmerge v4.4.0 ('Die Wiederkehr') built on Oct 31 2010 21:52:48 
Writing library : libebml v1.0.0 + libmatroska v1.0.0 

Video 
ID : 1 
Format : AVC 
Format/Info : Advanced Video Codec 
Format profile : High@L4.1 
Format settings, CABAC : Yes 
Format settings, ReFrames : 3 frames 
Muxing mode : Container profile=Unknown@4.1 
Codec ID : V_MPEG4/ISO/AVC 
Duration : 1h 45mn 
Bit rate : 9 499 Kbps 
Width : 1 920 pixels 
Height : 1 072 pixels 
Display aspect ratio : 16:9 
Frame rate : 23.976 fps 
Color space : YUV 
Chroma subsampling : 4:2:0 
Bit depth : 8 bits 
Scan type : Progressive 
Bits/(Pixel*Frame) : 0.192 
Stream size : 6.86 GiB (84%) 
Writing library : x264 core 98 r1649 c54c47d 
Encoding settings : cabac=1 / ref=4 / deblock=1:-3:-3 / analyse=0x3:0x113 / me=umh / subme=9 / psy=1 / psy_rd=1.00:0.15 / mixed_ref=1 / me_range=32 / chroma_me=1 / trellis=2 / 8x8dct=1 / cqm=0 / deadzone=21,11 / fast_pskip=0 / chroma_qp_offset=-3 / threads=6 / sliced_threads=0 / nr=0 / decimate=1 / interlaced=0 / constrained_intra=0 / bframes=6 / b_pyramid=1 / b_adapt=2 / b_bias=0 / direct=1 / weightb=1 / weightp=2 / keyint=250 / keyint_min=25 / scenecut=40 / intra_refresh=0 / rc_lookahead=100 / rc=2pass / mbtree=1 / bitrate=9499 / ratetol=1.0 / qcomp=0.60 / qpmin=10 / qpmax=51 / qpstep=4 / cplxblur=20.0 / qblur=0.5 / vbv_maxrate=50000 / vbv_bufsize=50000 / ip_ratio=1.40 / aq=1:1.50 / nal_hrd=none 
Language : English 

Audio 
ID : 2 
Format : DTS 
Format/Info : Digital Theater Systems 
Codec ID : A_DTS 
Duration : 1h 45mn 
Bit rate mode : Constant 
Bit rate : 1 510 Kbps 
Channel(s) : 6 channels 
Channel positions : Front: L C R, Side: L R, LFE 
Sampling rate : 48.0 KHz 
Bit depth : 24 bits 
Video delay : 10ms 
Stream size : 1.11 GiB (14%) 
Title : 3/2+1 
Language : English 

Text 
ID : 3 
Format : PGS 
Codec ID : S_HDMV/PGS 
Codec ID/Info : The same subtitle format used on BDs/HD-DVDs 
Language : English French Spanish



Menu & 18 Chapters



See the full size 1920x1072 PNG files at the link below

 
http://s1015.photobucket.com/albums/af279/tequila-bob/Sleepy%20Hollow%201999/




